<svg width="26" height="26" viewBox="0 0 26 26" fill="none" xmlns="http://www.w3.org/2000/svg">
<path d="M13 26C20.1797 26 26 20.1797 26 13C26 5.8203 20.1797 0 13 0C5.8203 0 0 5.8203 0 13C0 20.1797 5.8203 26 13 26Z" fill="url(#paint0_linear_420_77)"/>
<path d="M17.8413 16.9756L18.4188 13.3064H14.8063V10.9264C14.8063 9.9223 15.31 8.94302 16.9281 8.94302H18.5714V5.81921C18.5714 5.81921 17.0806 5.57129 15.656 5.57129C12.6795 5.57129 10.7359 7.32902 10.7359 10.5098V13.3064H7.42859V16.9756H10.7359V25.8462C11.3998 25.9479 12.0791 25.9999 12.771 25.9999C13.463 25.9999 14.1423 25.9479 14.8063 25.8462V16.9756H17.8413Z" fill="white"/>
<defs>
<linearGradient id="paint0_linear_420_77" x1="13" y1="0" x2="13" y2="25.9229" gradientUnits="userSpaceOnUse">
<stop stop-color="#18ACFE"/>
<stop offset="1" stop-color="#0163E0"/>
</linearGradient>
</defs>
</svg>
